<?xml version="1.0" standalone="no"?>
<!DOCTYPE svg PUBLIC "-//W3C//DTD SVG 20010904//EN"
 "http://www.w3.org/TR/2001/REC-SVG-20010904/DTD/svg10.dtd">
<svg version="1.0" xmlns="http://www.w3.org/2000/svg"
 width="100.000000pt" height="100.000000pt" viewBox="0 0 100.000000 100.000000"
 preserveAspectRatio="xMidYMid meet">
<metadata>
Created by potrace 1.14, written by Peter Selinger 2001-2017
</metadata>
<g transform="translate(0.000000,100.000000) scale(0.100000,-0.100000)"
fill="#000000" stroke="none">
<path d="M380 984 c-97 -26 -157 -60 -224 -126 -72 -71 -88 -103 -57 -113 16
-5 32 5 70 47 91 99 211 150 342 147 64 -2 161 -25 167 -41 2 -5 8 -6 13 -2 5
3 9 0 9 -7 0 -7 3 -10 6 -6 18 18 150 -123 186 -200 28 -60 32 -79 35 -171 2
-84 -1 -113 -18 -160 -41 -110 -132 -207 -245 -259 -76 -35 -210 -42 -295 -15
-30 9 -55 20 -57 24 -2 5 -9 8 -15 8 -7 0 -39 20 -72 45 -33 25 -66 43 -73 40
-8 -3 -16 -5 -18 -5 -2 0 -4 -6 -4 -14 0 -18 70 -86 88 -86 6 0 12 -3 12 -7 0
-22 141 -72 220 -79 387 -34 659 370 486 721 -59 120 -182 223 -305 255 -73
19 -190 21 -251 4z"/>
<path d="M300 851 c0 -14 8 -21 27 -23 26 -3 27 -5 27 -65 0 -62 1 -63 28 -63
26 0 27 2 30 63 3 60 4 62 31 65 21 3 27 8 23 19 -3 8 -6 17 -6 19 0 2 -36 4
-80 4 -72 0 -80 -2 -80 -19z"/>
<path d="M510 832 c0 -21 -8 -49 -17 -62 -27 -38 -25 -70 4 -70 14 0 23 6 23
15 0 12 13 15 55 15 42 0 55 -3 55 -15 0 -9 9 -15 23 -15 19 0 24 5 22 23 0
12 -6 31 -11 42 -6 11 -10 39 -9 63 l1 42 -73 0 -73 0 0 -38z"/>
<path d="M488 655 c-4 -3 -311 -18 -346 -16 -38 2 -61 -16 -55 -40 6 -20 10
-21 90 -15 64 4 83 3 82 -7 -3 -27 2 -38 24 -47 12 -5 16 -9 7 -9 -36 -2 -89
-23 -94 -37 -11 -29 13 -45 60 -40 24 2 44 1 44 -3 0 -4 -54 -14 -121 -23
-128 -18 -150 -27 -142 -58 6 -23 43 -26 138 -10 33 6 80 13 105 16 90 10 442
64 451 70 15 9 10 43 -8 53 -23 11 -16 11 -130 12 l-98 1 80 19 c44 10 90 21
102 24 24 6 37 33 27 60 -6 14 -17 17 -70 13 -34 -2 -61 -1 -59 2 9 15 -17 35
-49 36 -19 1 -36 1 -38 -1z"/>
<path d="M40 242 c0 -37 4 -49 15 -49 10 0 15 11 15 34 0 18 5 33 10 33 6 0
10 7 10 15 0 9 -9 15 -25 15 -23 0 -25 -3 -25 -48z"/>
<path d="M98 261 c-2 -17 0 -38 5 -47 9 -16 11 -16 24 2 12 16 15 17 23 4 6
-9 13 -11 18 -5 4 6 26 10 48 10 40 0 41 1 41 33 -1 30 -4 32 -35 32 -25 0
-33 -4 -29 -14 3 -8 -1 -20 -9 -26 -12 -10 -14 -8 -14 14 0 30 -17 34 -36 9
-13 -17 -14 -17 -8 0 4 11 1 17 -9 17 -9 0 -16 -12 -19 -29z"/>
<path d="M270 255 c0 -34 12 -46 25 -25 3 5 16 15 27 21 19 10 20 9 15 -10 -6
-23 0 -26 23 -11 9 5 19 5 26 -1 19 -15 26 6 13 35 -13 27 -43 35 -53 14 -5
-10 -7 -10 -12 0 -3 6 -19 12 -35 12 -26 0 -29 -3 -29 -35z"/>
<path d="M422 259 c3 -32 4 -33 50 -34 44 0 53 5 49 28 0 4 4 7 9 7 6 0 10 -9
10 -20 0 -23 10 -25 29 -7 11 10 13 10 7 0 -4 -8 -1 -13 7 -13 8 0 18 8 22 18
6 15 8 14 17 -8 7 -18 11 -21 17 -11 7 11 9 11 14 0 3 -11 7 -11 17 -2 10 9
16 8 28 -3 19 -20 26 -11 12 15 -7 15 -8 27 0 40 9 18 7 20 -23 19 -17 -1 -35
-6 -39 -12 -5 -8 -8 -7 -8 2 0 6 -6 12 -14 12 -8 0 -17 -6 -19 -12 -4 -10 -6
-10 -6 0 -1 8 -18 12 -50 12 -44 0 -50 -3 -53 -22 -3 -25 -23 -23 -23 2 0 9
-11 16 -28 18 -27 3 -28 1 -25 -29z"/>
<path d="M742 250 c-10 -42 -4 -54 21 -44 8 3 18 0 22 -5 15 -25 22 2 10 41
-16 57 -39 61 -53 8z"/>
</g>
</svg>
